<mxfile host="app.diagrams.net" modified="2023-12-10T09:14:52.692Z" agent="Mozilla/5.0 (Macintosh; Intel Mac OS X 10_15_7) AppleWebKit/537.36 (KHTML, like Gecko) Chrome/120.0.0.0 Safari/537.36" etag="UFFKdB564XDxP1nRrp7e" version="22.1.7" type="github">
  <diagram name="Page-1" id="2YBvvXClWsGukQMizWep">
    <mxGraphModel dx="987" dy="580" grid="1" gridSize="10" guides="1" tooltips="1" connect="1" arrows="1" fold="1" page="1" pageScale="1" pageWidth="850" pageHeight="1100" math="0" shadow="0">
      <root>
        <mxCell id="0" />
        <mxCell id="1" parent="0" />
        <mxCell id="IBWZfAmX6eu36iHtOGiu-1" value="" style="rounded=0;whiteSpace=wrap;html=1;" vertex="1" parent="1">
          <mxGeometry x="20" y="120" width="460" height="205" as="geometry" />
        </mxCell>
        <mxCell id="IBWZfAmX6eu36iHtOGiu-2" value="" style="shape=card;whiteSpace=wrap;html=1;rotation=-180;size=20;" vertex="1" parent="1">
          <mxGeometry x="20" y="120" width="55" height="30" as="geometry" />
        </mxCell>
        <mxCell id="IBWZfAmX6eu36iHtOGiu-3" value="opt" style="text;html=1;align=center;verticalAlign=middle;resizable=0;points=[];autosize=1;strokeColor=none;fillColor=none;fontSize=16;" vertex="1" parent="1">
          <mxGeometry x="20" y="120" width="50" height="30" as="geometry" />
        </mxCell>
        <mxCell id="IBWZfAmX6eu36iHtOGiu-4" value="[onInputEvent&amp;nbsp;== true]" style="text;html=1;align=center;verticalAlign=middle;resizable=0;points=[];autosize=1;strokeColor=none;fillColor=none;fontSize=10;" vertex="1" parent="1">
          <mxGeometry x="180" y="120" width="120" height="30" as="geometry" />
        </mxCell>
        <mxCell id="IBWZfAmX6eu36iHtOGiu-5" value="" style="endArrow=classic;html=1;rounded=0;exitX=1;exitY=0.25;exitDx=0;exitDy=0;entryX=-0.003;entryY=0.315;entryDx=0;entryDy=0;entryPerimeter=0;" edge="1" parent="1" source="IBWZfAmX6eu36iHtOGiu-20">
          <mxGeometry width="50" height="50" relative="1" as="geometry">
            <mxPoint x="155" y="175" as="sourcePoint" />
            <mxPoint x="339.94000000000005" y="174.64999999999998" as="targetPoint" />
          </mxGeometry>
        </mxCell>
        <mxCell id="IBWZfAmX6eu36iHtOGiu-6" value="changeLocation()" style="text;html=1;align=center;verticalAlign=middle;resizable=0;points=[];autosize=1;strokeColor=none;fillColor=none;fontSize=11;" vertex="1" parent="1">
          <mxGeometry x="195" y="150" width="110" height="30" as="geometry" />
        </mxCell>
        <mxCell id="IBWZfAmX6eu36iHtOGiu-7" value="Game Manager" style="shape=umlLifeline;perimeter=lifelinePerimeter;whiteSpace=wrap;html=1;container=0;dropTarget=0;collapsible=0;recursiveResize=0;outlineConnect=0;portConstraint=eastwest;newEdgeStyle={&quot;edgeStyle&quot;:&quot;elbowEdgeStyle&quot;,&quot;elbow&quot;:&quot;vertical&quot;,&quot;curved&quot;:0,&quot;rounded&quot;:0};" vertex="1" parent="1">
          <mxGeometry x="80" y="40" width="100" height="360" as="geometry" />
        </mxCell>
        <mxCell id="IBWZfAmX6eu36iHtOGiu-8" value=":paddle" style="shape=umlLifeline;perimeter=lifelinePerimeter;whiteSpace=wrap;html=1;container=0;dropTarget=0;collapsible=0;recursiveResize=0;outlineConnect=0;portConstraint=eastwest;newEdgeStyle={&quot;edgeStyle&quot;:&quot;elbowEdgeStyle&quot;,&quot;elbow&quot;:&quot;vertical&quot;,&quot;curved&quot;:0,&quot;rounded&quot;:0};" vertex="1" parent="1">
          <mxGeometry x="300" y="40" width="100" height="360" as="geometry" />
        </mxCell>
        <mxCell id="IBWZfAmX6eu36iHtOGiu-16" value="" style="rounded=1;whiteSpace=wrap;html=1;" vertex="1" parent="1">
          <mxGeometry x="340" y="135" width="20" height="160" as="geometry" />
        </mxCell>
        <mxCell id="IBWZfAmX6eu36iHtOGiu-17" value="" style="rounded=1;whiteSpace=wrap;html=1;" vertex="1" parent="1">
          <mxGeometry x="350" y="195" width="20" height="50" as="geometry" />
        </mxCell>
        <mxCell id="IBWZfAmX6eu36iHtOGiu-18" value="" style="endArrow=classic;html=1;rounded=0;exitX=1.1;exitY=0.604;exitDx=0;exitDy=0;exitPerimeter=0;entryX=1;entryY=0.25;entryDx=0;entryDy=0;" edge="1" parent="1">
          <mxGeometry width="50" height="50" relative="1" as="geometry">
            <mxPoint x="360" y="175" as="sourcePoint" />
            <mxPoint x="368" y="223" as="targetPoint" />
            <Array as="points">
              <mxPoint x="398" y="175" />
              <mxPoint x="398" y="223" />
            </Array>
          </mxGeometry>
        </mxCell>
        <mxCell id="IBWZfAmX6eu36iHtOGiu-19" value="changeLocation()" style="text;html=1;align=center;verticalAlign=middle;resizable=0;points=[];autosize=1;strokeColor=none;fillColor=none;fontSize=11;" vertex="1" parent="1">
          <mxGeometry x="375" y="185" width="110" height="30" as="geometry" />
        </mxCell>
        <mxCell id="IBWZfAmX6eu36iHtOGiu-20" value="" style="rounded=1;whiteSpace=wrap;html=1;" vertex="1" parent="1">
          <mxGeometry x="120" y="135" width="20" height="160" as="geometry" />
        </mxCell>
      </root>
    </mxGraphModel>
  </diagram>
</mxfile>
